# xmcd
#
# Track frame offsets: 
#        150
#        14578
#        28649
#        42478
#        55452
#        71267
#        89372
#        103438
#        120399
#        134455
#        152270
#        166334
#
# Disc length: 2428 seconds
#
# Revision: 0
# Processed by: cddbd v1.5.1PL2 Copyright (c) Steve Scherf et al.
# Submitted via: ExactAudioCopy v0.95b1
#
DISCID=9e097a0c
DTITLE=Jeff Bates - Leave The Light On
DYEAR=2006
DGENRE=Country
TTITLE0=Long, Slow Kisses
TTITLE1=Rub It In
TTITLE2=No Shame
TTITLE3=Hands On Man
TTITLE4=Leave The Light On
TTITLE5=That'll Get You Ten
TTITLE6=The Woman He Walked On
TTITLE7=One Second Chance
TTITLE8=Good People
TTITLE9=I Can't Write That
TTITLE10=What I Know
TTITLE11=Mama Was A Lot Like Jesus
EXTD=
EXTT0=
EXTT1=
EXTT2=
EXTT3=
EXTT4=
EXTT5=
EXTT6=
EXTT7=
EXTT8=
EXTT9=
EXTT10=
EXTT11=
PLAYORDER=
